<svg xmlns="http://www.w3.org/2000/svg" width="519.34375" height="387" viewBox="0 0 519.34375 387">

  <defs>
    <style>
      text { font-family: system-ui, -apple-system, "Segoe UI", sans-serif; font-size: 12px; fill: #111827; }
      .shape-rect { fill: #ffffff; stroke: #9ca3af; stroke-width: 1; }
      .shape-entity { fill: #ffffff; stroke: #111827; stroke-width: 2; }
      .shape-circle { fill: #ffffff; stroke: #9ca3af; stroke-width: 1; }
      .shape-pill { fill: #ffffff; stroke: #9ca3af; stroke-width: 1; }
      .shape-db { fill: #ffffff; stroke: #9ca3af; stroke-width: 1; }
      .conn { stroke: #111827; stroke-width: 2; fill: none; }
    </style>
    <marker id="arrow-end" markerWidth="10" markerHeight="7" refX="10" refY="3.5"
            orient="auto" markerUnits="strokeWidth">
      <polygon points="0 0, 10 3.5, 0 7" fill="#111827"/>
    </marker>
    <marker id="arrow-start" markerWidth="10" markerHeight="7" refX="0" refY="3.5"
            orient="auto" markerUnits="strokeWidth">
      <polygon points="10 0, 0 3.5, 10 7" fill="#111827"/>
    </marker>
  </defs>
        
<rect class="shape-entity" x="40" y="40" width="160" height="176" />
<line x1="40" y1="69" x2="200" y2="69" stroke="#e5e7eb" stroke-width="1"/>
<text x="120" y="59" text-anchor="middle">Usuario</text>
<text x="87.65625" y="88.5">id</text>
<text x="87.65625" y="111.5">nombre</text>
<text x="87.65625" y="134.5">apellidos</text>
<text x="87.65625" y="157.5">correo</text>
<text x="87.65625" y="180.5">contraseña</text>
<rect class="shape-entity" x="314" y="79" width="165.34375" height="268" />
<line x1="314" y1="108" x2="479.34375" y2="108" stroke="#e5e7eb" stroke-width="1"/>
<text x="396.671875" y="98" text-anchor="middle">Contenido</text>
<text x="341" y="127.5">id</text>
<text x="341" y="150.5">Usuario_id</text>
<text x="341" y="173.5">titulo</text>
<text x="341" y="196.5">tipo</text>
<text x="341" y="219.5">estado</text>
<text x="341" y="242.5">puntuacion</text>
<text x="341" y="265.5">comentario</text>
<text x="341" y="288.5">fecha_visualizacion</text>
<text x="341" y="311.5">nivel_prioridad</text>
<path class="conn" d="M 321 144.5462826193993 L 172.328125 86.4537173806007" marker-end="url(#arrow-end)" />
</svg>